# This file uses centimeters as units for non-parametric coordinates.

mtllib PuertaAlmacen+MaderasVentana.mtl
g default
v 5.959779 0.000000 -0.489332
v 12.152328 0.000000 -0.489332
v 5.959779 2.562015 -0.489332
v 12.152328 2.562015 -0.489332
v 5.959779 0.308531 -5.489332
v 12.152328 0.308531 -5.489332
v 5.959779 0.000000 -5.489332
v 12.152328 0.000000 -5.489332
vt 0.021339 0.775714
vt 0.021340 0.224286
vt 0.509707 0.224286
vt 0.509706 0.775715
vt 0.520996 0.199239
vt 0.537180 0.775715
vt 0.115082 0.016294
vt 0.115080 0.983706
vt 0.537181 0.224286
vt 0.520995 0.800763
vn 0.000000 0.911684 -0.410893
vn 0.000000 0.911684 -0.410893
vn 0.000000 0.911684 -0.410893
vn 0.000000 0.911684 -0.410893
vn 0.000000 0.000000 -1.000000
vn 0.000000 0.000000 -1.000000
vn 0.000000 0.000000 -1.000000
vn 0.000000 0.000000 -1.000000
vn 1.000000 0.000000 0.000000
vn 1.000000 0.000000 0.000000
vn 1.000000 0.000000 0.000000
vn 1.000000 0.000000 0.000000
vn -1.000000 0.000000 0.000000
vn -1.000000 0.000000 0.000000
vn -1.000000 0.000000 0.000000
vn -1.000000 0.000000 0.000000
s off
g pCube1
usemtl initialShadingGroup
f 3/1/1 4/2/2 6/3/3 5/4/4
f 5/4/5 6/3/6 8/9/7 7/6/8
f 2/7/9 8/5/10 6/3/11 4/2/12
f 7/10/13 1/8/14 3/1/15 5/4/16
g default
v 13.275935 28.355064 -1.430614
v 13.191348 28.657698 -1.434075
v 12.849851 28.412066 -1.425747
v 12.488845 27.990322 -1.414480
v 11.554492 28.048561 -1.402792
v 11.639071 27.745922 -1.399332
v 10.777094 27.524961 -1.384375
v 10.677708 27.855999 -1.388068
v 9.863925 27.402184 -1.370223
v 9.779339 27.704819 -1.373684
v 15.689398 27.453732 -1.085906
v 15.727114 28.014856 -1.084917
v 14.217587 27.747042 -1.094590
v 14.296608 27.318729 -1.064514
v 12.912521 27.579037 -1.111361
v 12.874792 27.017906 -1.112350
v 11.447334 27.170624 -1.125571
v 11.478193 27.788593 -1.124583
v 9.996120 27.519848 -1.138795
v 10.033836 28.080975 -1.137806
v 15.362608 25.503510 -1.087814
v 15.467093 26.233616 -1.086825
v 14.677279 26.107874 -1.085958
v 14.467506 25.535730 -1.101036
v 12.673973 26.746368 -1.113269
v 12.569473 26.016258 -1.114258
v 11.172937 26.496471 -1.127480
v 11.277422 27.136282 -1.126491
v 9.776356 27.239609 -1.140703
v 9.880840 27.969715 -1.139714
v 15.776968 27.411530 -1.111488
v 15.902876 27.011272 -1.110425
v 14.458558 26.531504 -1.293972
v 14.281353 26.941767 -1.390981
v 12.917822 26.553036 -1.046629
v 12.791899 26.987429 -1.101483
v 11.303652 26.599464 -1.057878
v 11.431005 26.156818 -1.056816
v 9.820351 26.099192 -1.072086
v 9.946259 25.698874 -1.071023
v 15.602499 24.242958 -1.085906
v 15.706984 24.738453 -1.084917
v 15.035969 24.641624 -1.091269
v 14.205915 24.307619 -1.099128
v 12.913864 25.086437 -1.111361
v 12.809364 24.590940 -1.112350
v 11.412828 24.916843 -1.125571
v 11.517313 25.463951 -1.124583
v 9.807003 25.514656 -1.164974
v 9.911488 26.010153 -1.163985
v 15.596363 23.042343 -1.056554
v 15.703634 23.537237 -1.058710
v 15.032394 23.444016 -1.079273
v 14.200834 23.114491 -1.102320
v 12.913877 23.900181 -1.152679
v 12.806591 23.405283 -1.150523
v 11.412607 23.738653 -1.199200
v 11.520174 24.285156 -1.201932
v 9.726967 24.188450 -1.064381
v 9.834238 24.683346 -1.066538
v 15.777050 25.513458 -1.193406
v 15.902958 24.863857 -1.169538
v 15.180759 24.925732 -1.167503
v 14.281393 25.287617 -1.175768
v 12.917824 24.120884 -1.123254
v 12.791899 24.770493 -1.147123
v 11.303612 24.196608 -1.116332
v 11.430965 23.478214 -1.089865
v 9.820269 23.385067 -1.076562
v 9.946178 22.735367 -1.052690
vt 0.873046 0.413817
vt 0.895271 0.458626
vt 0.858368 0.462569
vt 0.830468 0.364076
vt 0.852714 0.257042
vt 0.816505 0.262165
vt 0.803625 0.160342
vt 0.842969 0.153788
vt 0.803281 0.053841
vt 0.839217 0.048741
vt 0.668293 0.857269
vt 0.700539 0.962872
vt 0.660091 0.965047
vt 0.638280 0.866642
vt 0.645082 0.765396
vt 0.604630 0.767489
vt 0.603354 0.664075
vt 0.647811 0.661006
vt 0.615952 0.557325
vt 0.656392 0.555241
vt 0.642383 0.447089
vt 0.676733 0.503150
vt 0.618140 0.518239
vt 0.592297 0.449173
vt 0.627751 0.274754
vt 0.569009 0.289879
vt 0.561473 0.168623
vt 0.613372 0.156440
vt 0.573913 0.039135
vt 0.632663 0.024066
vt 0.946839 0.121509
vt 0.903202 0.158805
vt 0.884519 0.042479
vt 0.929781 0.038420
vt 0.960508 0.194406
vt 0.907506 0.192517
vt 0.965247 0.291700
vt 0.915411 0.291532
vt 0.969748 0.492372
vt 0.915831 0.492668
vt 0.788444 0.917263
vt 0.806221 0.966795
vt 0.767064 0.966481
vt 0.750053 0.859814
vt 0.785223 0.751113
vt 0.747549 0.753040
vt 0.741654 0.649446
vt 0.781722 0.645040
vt 0.748054 0.526516
vt 0.784288 0.522969
vt 0.895073 0.921739
vt 0.911133 0.969655
vt 0.873610 0.968572
vt 0.859300 0.866082
vt 0.896276 0.762015
vt 0.859576 0.762419
vt 0.859200 0.660192
vt 0.898832 0.657968
vt 0.859531 0.536270
vt 0.895343 0.534683
vt 0.721047 0.081416
vt 0.676620 0.135492
vt 0.693502 0.027576
vt 0.740937 0.033026
vt 0.727452 0.254704
vt 0.679962 0.249289
vt 0.739535 0.371038
vt 0.687264 0.364194
vt 0.758462 0.489333
vt 0.711039 0.484063
vn -0.013453 -0.015194 -0.999794
vn -0.013453 -0.015194 -0.999794
vn -0.013453 -0.015194 -0.999794
vn -0.013453 -0.015193 -0.999794
vn -0.013453 -0.015193 -0.999794
vn -0.013453 -0.015193 -0.999794
vn -0.013453 -0.015193 -0.999794
vn -0.013453 -0.015193 -0.999794
vn -0.013452 -0.015193 -0.999794
vn -0.013452 -0.015193 -0.999794
vn 0.014129 -0.028792 -0.999486
vn 0.000042 -0.029383 -0.999568
vn 0.000042 -0.029383 -0.999568
vn 0.013584 -0.028815 -0.999492
vn 0.018217 -0.012398 -0.999757
vn 0.017109 -0.010701 -0.999796
vn 0.009384 0.001132 -0.999955
vn 0.009384 0.001132 -0.999955
vn 0.009384 0.001132 -0.999955
vn 0.009384 0.001132 -0.999955
vn 0.010814 0.009728 -0.999894
vn 0.006738 0.010712 -0.999920
vn 0.006738 0.010712 -0.999920
vn 0.011579 0.009543 -0.999887
vn 0.011346 0.004855 -0.999924
vn 0.011680 0.005717 -0.999916
vn 0.009467 -0.000000 -0.999955
vn 0.009468 -0.000000 -0.999955
vn 0.009468 -0.000000 -0.999955
vn 0.009468 -0.000000 -0.999955
vn 0.030286 -0.131038 -0.990915
vn -0.025959 -0.160255 -0.986734
vn 0.172503 -0.054492 -0.983501
vn 0.172503 -0.054492 -0.983501
vn -0.090622 -0.154565 -0.983818
vn -0.073262 -0.137905 -0.987732
vn 0.007295 -0.031316 -0.999483
vn 0.007282 -0.031513 -0.999477
vn 0.009469 0.000323 -0.999955
vn 0.009469 0.000323 -0.999955
vn 0.009467 -0.000000 -0.999955
vn 0.009467 -0.000000 -0.999955
vn 0.009467 -0.000000 -0.999955
vn 0.009467 0.000000 -0.999955
vn 0.009467 -0.000000 -0.999955
vn 0.009467 -0.000000 -0.999955
vn 0.016572 -0.001424 -0.999862
vn 0.017522 -0.001615 -0.999845
vn 0.023526 -0.002819 -0.999719
vn 0.023526 -0.002819 -0.999719
vn 0.032189 -0.011332 -0.999418
vn 0.032189 -0.011332 -0.999418
vn 0.032189 -0.011332 -0.999418
vn 0.032189 -0.011332 -0.999418
vn 0.032189 -0.011332 -0.999418
vn 0.032189 -0.011332 -0.999418
vn -0.025843 0.000639 -0.999666
vn -0.029656 0.001426 -0.999559
vn -0.077078 0.011222 -0.996962
vn -0.077078 0.011222 -0.996962
vn -0.006063 -0.037890 -0.999264
vn -0.006063 -0.037890 -0.999264
vn -0.006063 -0.037890 -0.999264
vn -0.006063 -0.037890 -0.999264
vn -0.006063 -0.037890 -0.999264
vn -0.006063 -0.037890 -0.999264
vn -0.006062 -0.037890 -0.999264
vn -0.006062 -0.037890 -0.999264
vn -0.006062 -0.037890 -0.999264
vn -0.006062 -0.037890 -0.999264
s 1
g polySurface8
usemtl lambert3SG
f 11/11/17 10/12/18 9/13/19 12/14/20
f 13/15/21 11/11/17 12/14/20 14/16/22
f 13/15/21 14/16/22 15/17/23 16/18/24
f 16/18/24 15/17/23 17/19/25 18/20/26
s 2
f 21/21/27 20/22/28 19/23/29 22/24/30
f 23/25/31 21/21/27 22/24/30 24/26/32
f 23/25/31 24/26/32 25/27/33 26/28/34
f 26/28/34 25/27/33 27/29/35 28/30/36
s 3
f 31/31/37 30/32/38 29/33/39 32/34/40
f 33/35/41 31/31/37 32/34/40 34/36/42
f 33/35/41 34/36/42 35/37/43 36/38/44
f 36/38/44 35/37/43 37/39/45 38/40/46
s 4
f 41/41/47 42/42/48 39/43/49 40/44/50
f 43/45/51 44/46/52 42/42/48 41/41/47
f 43/45/51 46/47/53 45/48/54 44/46/52
f 46/47/53 48/49/55 47/50/56 45/48/54
s 5
f 51/51/57 50/52/58 49/53/59 52/54/60
f 53/55/61 51/51/57 52/54/60 54/56/62
f 53/55/61 54/56/62 55/57/63 56/58/64
f 56/58/64 55/57/63 57/59/65 58/60/66
s 6
f 61/61/67 60/62/68 59/63/69 62/64/70
f 63/65/71 61/61/67 62/64/70 64/66/72
f 63/65/71 64/66/72 65/67/73 66/68/74
f 66/68/74 65/67/73 67/69/75 68/70/76
s 7
f 71/71/77 72/72/78 69/73/79 70/74/80
f 73/75/81 74/76/82 72/72/78 71/71/77
f 73/75/81 76/77/83 75/78/84 74/76/82
f 76/77/83 78/79/85 77/80/86 75/78/84
